<?xml version="1.0" encoding="iso-8859-1"?>
<!-- Generator: Adobe Illustrator 16.0.0, SVG Export Plug-In . SVG Version: 6.00 Build 0)  -->
<!DOCTYPE svg PUBLIC "-//W3C//DTD SVG 1.1//EN" "http://www.w3.org/Graphics/SVG/1.1/DTD/svg11.dtd">
<svg version="1.1" id="Capa_1" xmlns="http://www.w3.org/2000/svg" xmlns:xlink="http://www.w3.org/1999/xlink" x="0px" y="0px"
	 width="422.324px" height="422.324px" viewBox="0 0 422.324 422.324" style="enable-background:new 0 0 422.324 422.324;"
	 xml:space="preserve">
<g>
	<path d="M328.911,315.44c-3.63-7.531-7.897-14.736-12.017-21.693c-1.69-2.843-3.369-5.68-5.013-8.547
		c2.211-2.394,3.7-5.373,4.262-8.694c1.401-8.322-4.711-17.378-13.341-19.777c-2.665-0.757-5.391-1.005-7.755-1.088l-13.264-138.787
		c7.743-1.975,16.344-9.517,16.84-17.522c0.385-6.313-1.985-11.857-6.525-15.64c14.363-16.039,23.183-33.452,26.864-52.972
		c0.922-4.909,1.797-9.836,2.695-14.907l1.312-7.38c0.384-2.092-0.189-4.231-1.549-5.863C320.051,0.934,318.041,0,315.919,0h-51.908
		c-2.016,0-3.931,0.843-5.296,2.332c-1.354,1.489-2.021,3.473-1.844,5.482l2.742,30.166h-21.249l2.713-30.166
		c0.183-2.01-0.491-3.993-1.851-5.471C237.873,0.854,235.952,0,233.937,0h-46.021c-2.016,0-3.931,0.854-5.29,2.344
		c-1.363,1.49-2.027,3.473-1.853,5.471l2.73,30.142h-21.24l2.731-30.112c0.174-1.995-0.491-3.993-1.847-5.482
		c-1.362-1.478-3.28-2.329-5.296-2.329h-51.604c-2.063,0-4.013,0.881-5.382,2.42c-1.368,1.549-1.992,3.605-1.732,5.654
		c0.177,1.416,0.334,2.813,0.485,4.17c0.346,3.097,0.668,6.002,1.229,9.029c5.116,27.473,14.422,47.901,29.045,63.47
		c-3.274,3.286-5.24,7.717-5.441,12.8c-0.168,4.43,1.882,9.206,5.636,13.11c3.073,3.188,6.797,5.394,10.627,6.348L127.46,255.652
		c-1.731,0.106-3.6,0.331-5.458,0.84c-8.813,2.376-14.842,11.147-13.734,19.954c0.52,4.126,2.494,7.673,5.515,10.25
		c-6.774,10.178-13.734,20.889-20.229,31.776c-7.439,12.448-9.375,26.988-5.604,42.049c1.93,7.743,4.992,15.049,7.953,22.13
		c0.896,2.14,1.797,4.279,2.657,6.431c-2.205,2.199-4.031,5.001-5.515,8.417c-1.566,3.617-2.474,7.354-3.366,10.977
		c-0.381,1.549-0.763,3.15-1.215,4.77c-0.6,2.152-0.15,4.469,1.197,6.254c1.362,1.785,3.463,2.825,5.709,2.825h231.271
		c2.233,0,4.344-1.04,5.691-2.813c1.354-1.773,1.803-4.078,1.218-6.224c-0.408-1.501-0.763-2.938-1.111-4.333
		c-0.792-3.145-1.53-6.123-2.66-9.149c-1.164-3.133-2.955-7.069-6.164-10.309C338.492,363.217,340.2,338.936,328.911,315.44z
		 M138.791,98.169c0.127-3.274,2.53-4.412,4.522-4.787c2.808-0.521,4.853-2.767,5.488-5.557c0.63-2.778-0.629-5.792-2.923-7.495
		c-16.092-14.236-25.632-33.239-30.91-61.625c-0.266-1.419-0.473-2.864-0.653-4.318h35.71L147.3,44.488
		c-0.18,2.009,0.49,3.996,1.853,5.485c1.356,1.487,3.274,2.329,5.284,2.329h36.933c2.016,0,3.934-0.842,5.296-2.329
		c1.356-1.489,2.021-3.476,1.847-5.473l-2.725-30.142h30.329l-2.72,30.166c-0.171,1.998,0.485,3.995,1.851,5.473
		c1.359,1.49,3.28,2.329,5.296,2.329h36.919c2.016,0,3.937-0.839,5.29-2.329c1.359-1.49,2.033-3.476,1.85-5.485l-2.736-30.166h35.5
		c-0.827,4.661-1.638,9.2-2.494,13.728c-3.659,19.411-13.323,36.553-29.542,52.405c-0.166,0.124-0.337,0.271-0.449,0.378
		c-2.128,1.915-2.902,4.909-1.998,7.616c0.922,2.704,3.363,4.625,6.206,4.858c1.247,0.098,1.856,0.275,2.163,0.399
		c2.701,1.158,3.175,2.73,3.098,4.457c-0.432,1.427-3.877,4.465-6.496,4.823h-3.937c-2.016,0.012-3.931,0.866-5.284,2.367
		c-1.359,1.49-2.016,3.484-1.826,5.482l13.672,143.009H142.054l13.648-142.749c0.189-2.009-0.473-4.004-1.833-5.506
		c-1.363-1.49-3.284-2.343-5.305-2.343l-3.552,0.012C142.291,103.276,138.906,99.608,138.791,98.169z M306.733,392.688
		c0.42,2.529,2.164,4.634,4.569,5.532c1.466,0.544,3.18,1.548,5.077,6.62c0.373,1.017,0.71,2.068,1.022,3.18h-212.79
		c0.473-1.738,0.975-3.334,1.616-4.8c1.584-3.677,3.195-4.74,4.418-5.249c2.19-0.922,3.686-3.014,4.158-5.343
		c0.47-2.329-0.352-4.882-2.009-6.573c-1.162-2.99-2.403-5.958-3.65-8.925c-2.881-6.88-5.606-13.37-7.27-20.062
		c-2.831-11.312-1.439-22.105,4.001-31.221c7.82-13.098,16.379-26.031,24.453-38.064c1.374-2.058,1.599-4.67,0.594-6.916
		c-1.005-2.258-3.1-3.83-5.544-4.186c-0.993-0.129-2.695-0.578-2.876-1.997c-0.189-1.501,1.271-3.795,3.251-4.327
		c1.475-0.401,3.408-0.461,4.933-0.461l58.212-0.012c34.676,0,69.349,0.012,104.026,0.059c1.833,0,4.162,0.077,6.018,0.598
		c1.95,0.544,3.168,2.825,3.067,3.582c-0.254,1.478-1.637,2.122-2.21,2.334c-2.264,0.816-3.973,2.702-4.54,5.049
		c-0.573,2.328,0.071,4.799,1.702,6.561c0.083,0.095,0.219,0.248,0.385,0.556c2.322,4.19,4.764,8.322,7.211,12.448
		c4.155,6.998,8.074,13.618,11.426,20.581c9.746,20.286,7.513,40.808-7.04,64.581C307.159,387.853,306.326,390.288,306.733,392.688z
		 M150.666,240.267l8.364-115.732c0.287-3.945,3.724-6.918,7.663-6.635c3.955,0.284,6.924,3.712,6.641,7.663l-8.364,115.745
		c-0.274,3.771-3.416,6.649-7.143,6.649c-0.174,0-0.352,0-0.52-0.012C153.347,247.649,150.382,244.21,150.666,240.267z
		 M138.33,377.344c2.471,3.097,1.962,7.612-1.138,10.071c-1.318,1.064-2.899,1.572-4.46,1.572c-2.113,0-4.188-0.928-5.612-2.701
		c-36.52-45.82,0.287-81.799,0.662-82.147c2.861-2.713,7.4-2.618,10.131,0.248c2.73,2.867,2.627,7.395-0.23,10.119
		C136.448,315.712,110.18,342.032,138.33,377.344z"/>
</g>
<g>
</g>
<g>
</g>
<g>
</g>
<g>
</g>
<g>
</g>
<g>
</g>
<g>
</g>
<g>
</g>
<g>
</g>
<g>
</g>
<g>
</g>
<g>
</g>
<g>
</g>
<g>
</g>
<g>
</g>
</svg>
